<svg version="1.2" xmlns="http://www.w3.org/2000/svg" viewBox="0 0 338 324" width="338" height="324">
	<title>New Project</title>
	<style>
		.s0 { opacity: .16;fill: #9a8863 } 
		.s1 { opacity: .2;fill: #bdab64 } 
		.s2 { opacity: .25;fill: #adb465 } 
		.s3 { opacity: .3;fill: #a59264 } 
		.s4 { opacity: .39;fill: #998763 } 
		.s5 { opacity: .47;fill: #8e7861 } 
		.s6 { opacity: .58;fill: #988863 } 
		.s7 { opacity: .72;fill: #958764 } 
		.s8 { opacity: .8;fill: #928463 } 
		.s9 { opacity: .98;fill: #9d8b64 } 
		.s10 { opacity: .99;fill: #8f8163 } 
		.s11 { opacity: .99;fill: #08c06a } 
		.s12 { opacity: .99;fill: #aa9b64 } 
		.s13 { opacity: .99;fill: #c7b664 } 
		.s14 { opacity: .99;fill: #867e71 } 
		.s15 { opacity: .99;fill: #e0c065 } 
		.s16 { opacity: .99;fill: #debe65 } 
		.s17 { opacity: 1;fill: #ddbd65 } 
	</style>
	<g id="Layer 1">
		<path id="Path 0" class="s0" d="m181 3v-1l4 1zm-161 1h1v1h-1zm-4 2h1v1h-1zm196 0h1v1h-1zm-198 1h1v1h-1zm217 5h1v1h-1zm5 2h1v1h-1zm2 1h1v1h-1zm-234 4h1v1h-1zm-2 7h1v1h-1zm257 0h1v1h-1zm18 13h1v1h-1zm-59 8h1v1h-1zm7 3h1v1h-1zm72 9h1v1h-1zm3 4h1v1h-1zm-51 1h1v1h-1zm5 4h1v1h-1zm58 13h1v1h-1zm-39 7h1v1h-1zm45 5h1v1h-1zm1 2h1v1h-1zm-40 2h1v1h-1zm42 3h1v1h-1zm2 5h1v1h-1zm1 3h1v1h-1zm1 3h1v1h-1zm1 3h1v1h-1zm1 4h1v1h-1zm-35 9h1v1h-1zm38 4h1v1h-1zm-36 4h1v1h-1zm37 2h1v1h-1zm-36 3h1v1h-1zm37 5h1v1h-1zm0 29v-1h1l-1 2zm-1 8h1v1h-1zm-293 1h1v1h-1zm0 12h1v1h-1zm288 10h1v1h-1zm-8 22h1v1h-1zm-1 2h1v1h-1zm-1 2h1v1h-1zm-1 2h1v1h-1zm-1 2h1v1h-1zm-276 2h1v1h-1zm272 5h1v1h-1zm-272 4h1v1h-1zm269 1h1v1h-1zm-2 3h1v1h-1zm-2 3h1v1h-1zm-265 7h1v1h-1zm256 5h1v1h-1zm-2 2h1v1h-1zm-16 16h1v1h-1zm-208 1h1v1h-1zm203 3h1v1h-1zm-268 9l-1-4h1v3zm252 2h1v1h-1zm-252 2h1v1h-1zm243 3h1v1h-1zm-2 1h1v1h-1zm-2 1h1v1h-1zm-2 1h1v1h-1zm-233 2h1v1h-1zm228 0h1v1h-1zm-2 1h1v1h-1zm-5 2h1v1h-1zm-213 5h1v1h-1zm197 0h1v1h-1zm-14 3h1v1h-1zm-173 1h1v1h-1zm165 0h1v1h-1z"/>
		<path id="Path 1" class="s1" d="m194 3h1v1h-1zm7 1h1v1h-1zm70 30h1v1h-1zm-226 5h1v1h-1zm158 3h1v1h-1zm-164 3h1v1h-1zm-1 124v-120h1v134h-1zm0 20v-5h1v5zm0 6v-5h1v5zm0 26v-25h1v25zm0 16v-15h1v15zm0 9v-8h1v8zm0 7v-6h1v6zm0 3v-2h1v2zm0 4v-3h1v3zm0 15v-14h1v16h-1zm9 10v-1l7 1zm8 0l2-1v1zm3-1h1v1h-1zm2 0h1v1h-1zm2 0h1v1h-1zm2 1v-1h3v1zm5 0v-1h8v1zm198 5h1v1h-1zm-103 31h-9 2 1 4z"/>
		<path id="Path 2" class="s2" d="m38 48h1v1h-1zm0 141h1v1h-1zm0 64h1v1h-1zm0 3h1v1h-1zm19 28h1v1h-1zm2 0h1v1h-1zm2 0h1v1h-1zm2 0h1v1h-1zm4 0h1v1h-1zm10 1v-1h27v1h-8-7zm28 0v-1h15v1h-6-2-2-1zm16 0v-1h16v1h-1zm17 0v-1h14v1h-12-1zm16-1h1v1h-1zm2 1v-1h4v1zm6 0v-1h12v1h-3-1-1-1-2-1-2zm13-1h1v1h-1z"/>
		<path id="Path 3" class="s3" d="m29 3l98-1v1zm137 0v-1h4v1zm5 0v-1h10v1zm-147 0h1v1h-1zm176 1h1v1h-1zm-182 1h1v1h-1zm188 0h1v1h-1zm5 1h1v1h-1zm4 1h1v1h-1zm10 3h1v1h-1zm3 1h1v1h-1zm12 5h1v1h-1zm12 6h1v1h-1zm2 1h1v1h-1zm-252 4h1v1h-1zm260 1h1v1h-1zm3 2h1v1h-1zm-215 9v-1h101v1zm137 0h1v1h-1zm-144 1h1v1h-1zm151 0h1v1h-1zm-152 1h1v1h-1zm157 0h1v1h-1zm8 2h1v1h-1zm9 3h1v1h-1zm5 2h1v1h-1zm2 1h1v1h-1zm10 5h1v1h-1zm2 1h1v1h-1zm60 2h1v1h-1zm1 1h1v1h-1zm7 9h1v1h-1zm4 6h1v1h-1zm2 3h1v1h-1zm-26 28h1v1h-1zm1 2h1v1h-1zm4 9h1v1h-1zm8 32h1v1h-1zm34 41h1v1h-1zm-1 5h1v1h-1zm-4 15h1v1h-1zm-3 9h1v1h-1zm-284 4h1v1h-1zm273 19h1v1h-1zm-11 17h1v1h-1zm-106 25h1v1h-1zm-7 1h1v1h-1zm-141 1h1v1h-1zm58 0h1v1h-1zm16 0h1v1h-1zm17 0h1v1h-1zm15 1v-1h2v1zm3-1h1v1h-1zm5 1v-1h2v1h-1zm14-1h1v1h-1zm2 1v-1h2v1zm43 29h1v1h-1zm-11 3h1v1h-1zm-189 1h1v1h-1zm184 0h1v1h-1zm-6 1h1v1h-1zm-9 2v-1h2v1z"/>
		<path id="Path 4" class="s4" d="m127 3v-1h39v1zm43-1h1v1h-1zm23 1h1v1h-1zm26 5h1v1h-1zm3 1h1v1h-1zm-214 4h1v1h-1zm225 0h1v1h-1zm9 4h1v1h-1zm2 1h1v1h-1zm2 1h1v1h-1zm2 1h1v1h-1zm2 1h1v1h-1zm-247 1h1v1h-1zm254 3h1v1h-1zm-255 5v-2h1v2zm266 2h1v1h-1zm4 3h1v1h-1zm-121 4v-1h27v1zm37 0h1v1h-1zm-148 4h1v1h-1zm197 13h1v1h-1zm5 3h1v1h-1zm3 2h1v1h-1zm60 9h1v1h-1zm8 13h1v1h-1zm-43 1h1v1h-1zm12 18h1v1h-1zm3 6h1v1h-1zm43 14h1v1h-1zm1 4h1v1h-1zm-36 4h1v1h-1zm37 2h1v1h-1zm1 6h1v1h-1zm-35 8h1v1h-1zm36 0h1v1h-1zm-36 29h1v1h-1zm35 6h1v1h-1zm-1 6h1v1h-1zm-2 10h1v1h-1zm-1 4h1v1h-1zm-7 21h1v1h-1zm-23 39h1v1h-1zm-6 7h1v1h-1zm-253 9h1v1h-1zm150 6h1v1h-1zm-186 9v-2h1v2zm262 0h1v1h-1zm-6 4h1v1h-1zm-5 3h1v1h-1zm-2 1h1v1h-1zm-26 12h1v1h-1zm-3 1h1v1h-1zm-35 7h1v1h-1z"/>
		<path id="Path 5" class="s5" d="m13 8h1v1h-1zm-4 4h1v1h-1zm-3 4h1v1h-1zm-4 274v-260h1v18 242zm276-250h1v1h-1zm-30 23h1v1h-1zm5 4h1v1h-1zm7 6h1v1h-1zm54 12h1v1h-1zm1 2h1v1h-1zm-37 8h1v1h-1zm3 5h1v1h-1zm5 10h1v1h-1zm4 10h1v1h-1zm1 3h1v1h-1zm1 3h1v1h-1zm2 8h1v1h-1zm1 5h1v1h-1zm36 0h1v1h-1zm1 10v-2h1v2zm0 24v-5h1v5zm-38 14h1v1h-1zm-4 82h1v1h-1zm-13 13h1v1h-1zm-5 4h1v1h-1zm-269 13h1v1h-1zm1 3h1v1h-1zm233 5h1v1h-1zm-7 3h1v1h-1z"/>
		<path id="Path 6" class="s6" d="m25 3h1v1h-1zm166 1v-1h2v1zm-170 0h1v1h-1zm178 0h1v1h-1zm6 1h1v1h-1zm55 22h1v1h-1zm13 9h1v1h-1zm-225 3v-1h2v1zm147 1h1v1h-1zm84 1h1v1h-1zm-75 1h1v1h-1zm7 2h1v1h-1zm3 1h1v1h-1zm-176 2h1v1h-1zm256 9h1v1h-1zm5 6h1v1h-1zm-40 10h1v1h-1zm2 2h1v1h-1zm1 1h1v1h-1zm9 10h1v1h-1zm3 4h1v1h-1zm42 0h1v1h-1zm1 2h1v1h-1zm-41 1h1v1h-1zm4 6h1v1h-1zm40 0h1v1h-1zm2 5h1v1h-1zm-35 9h1v1h-1zm39 3h1v1h-1zm-37 2h1v1h-1zm7 28h1v1h-1zm36 5v-1h1v2h-1zm-35 17v-11h1v11zm35 1v-2h1v2zm-36 8h1v1h-1zm35 4h1v1h-1zm-2 12h1v1h-1zm-37 3h1v1h-1zm34 9h1v1h-1zm-2 7h1v1h-1zm-1 3h1v1h-1zm-2 5h1v1h-1zm-2 5h1v1h-1zm-108 54h1v1h-1zm-7 2h1v1h-1zm-4 1h1v1h-1zm78 0h1v1h-1zm-89 2h1v1h-1zm-11 2v-1h2v1zm83 9h1v1h-1zm-253 15h1v1h-1zm6 6h1v1h-1zm201 0h1v1h-1zm-4 1h1v1h-1zm-194 1h1v1h-1zm185 1h1v1h-1zm-180 1h1v1h-1zm174 0h1v1h-1zm-170 1h1v1h-1zm160 0h1v1h-1z"/>
		<path id="Path 7" class="s7" d="m210 6h1v1h-1zm8 2h1v1h-1zm-206 1h1v1h-1zm215 2h1v1h-1zm3 1h1v1h-1zm5 2h1v1h-1zm34 19h1v1h-1zm-91 5h1v1h-1zm11 1h1v1h-1zm11 2h1v1h-1zm8 2h1v1h-1zm11 4h1v1h-1zm9 4h1v1h-1zm30 20h1v1h-1zm52 7h1v1h-1zm14 31h1v1h-1zm1 3h1v1h-1zm-37 2h1v1h-1zm5 15h1v1h-1zm37 4h1v1h-1zm1 7h1v1h-1zm1 13v-2h1v2zm-35 3v-2h1v2zm34 23h1v1h-1zm-2 12h1v1h-1zm-1 5h1v1h-1zm-41 13h1v1h-1zm25 29h1v1h-1zm-4 7h1v1h-1zm-4 6h1v1h-1zm-2 3h1v1h-1zm-3 4h1v1h-1zm-3 4h1v1h-1zm-7 8h1v1h-1zm-63 2h1v1h-1zm-12 5h1v1h-1zm65 3h1v1h-1zm-84 2h1v1h-1zm-15 3v-1h2v1zm88 4h1v1h-1zm-19 12h1v1h-1zm-244 3h1v1h-1zm1 2h1v1h-1zm201 11h1v1h-1zm-12 2h1v1h-1z"/>
		<path id="Path 8" class="s8" d="m190 3h1v1h-1zm8 1h1v1h-1zm16 3h1v1h-1zm-210 13h1v1h-1zm-1 3h1v1h-1zm252 1h1v1h-1zm8 5h1v1h-1zm-84 10v-1h2v1zm17 1h1v1h-1zm21 6h1v1h-1zm13 6h1v1h-1zm2 1h1v1h-1zm61 2h1v1h-1zm-54 2h1v1h-1zm5 3h1v1h-1zm54 1h1v1h-1zm3 4h1v1h-1zm1 1h1v1h-1zm2 3h1v1h-1zm2 3h1v1h-1zm2 3h1v1h-1zm3 5h1v1h-1zm8 16h1v1h-1zm4 10h1v1h-1zm4 13h1v1h-1zm-36 3h1v1h-1zm37 1h1v1h-1zm1 4h1v1h-1zm-35 6h1v1h-1zm1 5h1v1h-1zm1 6h1v1h-1zm1 10v-2h1v2zm35-1h1v1h-1zm0 13v-5h1v5zm-35 3v-2h1v2zm-1 8h1v1h-1zm35 1h1v1h-1zm-36 5h1v1h-1zm35 3h1v1h-1zm-36 2h1v1h-1zm-1 4h1v1h-1zm34 8h1v1h-1zm-2 7h1v1h-1zm-5 14h1v1h-1zm-2 5h1v1h-1zm-1 2h1v1h-1zm-1 2h1v1h-1zm-3 6h1v1h-1zm-4 7h1v1h-1zm-3 5h1v1h-1zm-72 20h1v1h-1zm54 3h1v1h-1zm-66 3h1v1h-1zm-5 2h1v1h-1zm-9 3h1v1h-1zm72 0h1v1h-1zm-90 4h1v1h-1zm-145 1h1v1h-1zm228 1h1v1h-1zm-17 12h1v1h-1zm-253 1h1v1h-1zm244 4h1v1h-1zm-8 4h1v1h-1zm-7 3h1v1h-1zm-5 2h1v1h-1zm-3 1h1v1h-1zm-6 2h1v1h-1zm-198 4h1v1h-1zm181 0h1v1h-1zm-7 1h1v1h-1zm-167 1h1v1h-1zm158 0h1v1h-1z"/>
		<path id="Path 9" class="s9" d="m15 7h1v1h-1zm206 2h1v1h-1zm3 1h1v1h-1zm8 3h1v1h-1zm5 2h1v1h-1zm2 1h1v1h-1zm2 1h1v1h-1zm2 1h1v1h-1zm6 3h1v1h-1zm2 1h1v1h-1zm2 1h1v1h-1zm-250 1h1v1h-1zm253 1h1v1h-1zm2 1h1v1h-1zm3 2h1v1h-1zm5 3h1v1h-1zm1 1h1v1h-1zm3 2h1v1h-1zm4 3h1v1h-1zm-93 2v-1h3v1zm94-1h1v1h-1zm-85 2v-1h3v1zm86-1h1v1h-1zm4 3h1v1h-1zm1 1h1v1h-1zm-242 1h1v1h-1zm243 0h1v1h-1zm1 1h1v1h-1zm1 1h1v1h-1zm1 1h1v1h-1zm-63 1h1v1h-1zm64 0h1v1h-1zm-62 1h1v1h-1zm63 0h1v1h-1zm-61 1h1v1h-1zm62 0h1v1h-1zm2 2h1v1h-1zm7 8h1v1h-1zm8 11h1v1h-1zm1 2h1v1h-1zm1 1h1v1h-1zm8 14h1v1h-1zm4 9h1v1h-1zm5 13h1v1h-1zm-36 3h1v1h-1zm4 11h1v1h-1zm36 0h1v1h-1zm1 5h1v1h-1zm1 5h1v1h-1zm-35 2h1v1h-1zm2 16v-2h1v2zm0 18h1v1h-1zm0 2h1v1h-1zm34 5h1v1h-1zm-36 8h1v1h-1zm35 0h1v1h-1zm-36 4h1v1h-1zm-1 4h1v1h-1zm35 2h1v1h-1zm-36 1h1v1h-1zm-1 3h1v1h-1zm36 0h1v1h-1zm-37 3h1v1h-1zm36 1h1v1h-1zm-1 3h1v1h-1zm-37 1h1v1h-1zm36 4l1-2v2zm-38 1h1v1h-1zm37 1h1v1h-1zm-38 1h1v1h-1zm-1 2h1v1h-1zm38 0h1v1h-1zm-39 2h1v1h-1zm38 0h1v1h-1zm-39 2h1v1h-1zm37 3h1v1h-1zm-40 2h1v1h-1zm-6 9h1v1h-1zm-6 8h1v1h-1zm-1 1h1v1h-1zm-8 8h1v1h-1zm-7 6h1v1h-1zm-4 3h1v1h-1zm-3 2h1v1h-1zm-3 2h1v1h-1zm-1 1h1v1h-1zm-2 1h1v1h-1zm-2 1h1v1h-1zm-11 6h1v1h-1zm-16 6h1v1h-1zm-4 1h1v1h-1zm-4 1h1v1h-1zm-5 1h1v1h-1zm-5 1h1v1h-1zm-9 2v-1h3v1zm77 10h1v1h-1zm-256 2h1v1h-1zm251 1h1v1h-1zm-249 5h1v1h-1zm240 0h1v1h-1zm-2 1h1v1h-1zm-2 1h1v1h-1zm-7 3h1v1h-1zm-5 2h1v1h-1zm-8 3h1v1h-1zm-7 2h1v1h-1zm-4 1h1v1h-1zm-192 1h1v1h-1zm188 0h1v1h-1zm-6 1h1v1h-1zm-177 1h1v1h-1zm5 1h1v1h-1zm156 0h1v1h-1z"/>
		<path id="Path 10" class="s10" d="m11 10h1v1h-1zm-1 1h1v1h-1zm-3 4h1v1h-1zm-2 3h1v1h-1zm284 33h1v1h-1zm2 2h1v1h-1zm-57 1h1v1h-1zm58 0h1v1h-1zm-56 1h1v1h-1zm5 3h1v1h-1zm59 6h1v1h-1zm3 4h1v1h-1zm6 9h1v1h-1zm3 5h1v1h-1zm1 2h1v1h-1zm1 2h1v1h-1zm2 4h1v1h-1zm-40 1h1v1h-1zm41 1h1v1h-1zm-40 1h1v1h-1zm1 1h1v1h-1zm40 0h1v1h-1zm2 5h1v1h-1zm1 2h1v1h-1zm-38 2h1v1h-1zm39 1h1v1h-1zm-38 1h1v1h-1zm1 2h1v1h-1zm40 6h1v1h-1zm-36 3h1v1h-1zm37 0h1v1h-1zm-36 3h1v1h-1zm37 1h1v1h-1zm-35 5h1v1h-1zm1 3h1v1h-1zm36 0h1v1h-1zm-35 4h1v1h-1zm1 5h1v1h-1zm36 5v-1h1v2h-1zm-35 2v-2h1v2zm36 17v-7h1v7zm-35 8h1v1h-1zm0 2h1v1h-1zm-1 9v-2h1v2zm-1 4h1v1h-1zm-18 44h1v1h-1zm-2 3h1v1h-1zm40 1h1v1h-1zm-1 2h1v1h-1zm-44 4h1v1h-1zm37 8h1v1h-1zm-83 27h1v1h-1zm-4 2h1v1h-1zm-2 1h1v1h-1zm-3 1h1v1h-1zm-3 1h1v1h-1zm57 10h1v1h-1zm-265 13h1v1h-1z"/>
		<path id="Path 11" class="s11" d="m40 319h1v1h-1z"/>
		<path id="Path 12" class="s12" d="m188 4v-1h2v1zm9 0h1v1h-1zm-178 1h1v1h-1zm184 1v-1h2v1zm5 1v-1h2v1zm5 0h1v1h-1zm4 1h1v1h-1zm3 1h1v1h-1zm9 3h1v1h-1zm-221 2h1v1h-1zm237 5h1v1h-1zm2 1h1v1h-1zm17 10h1v1h-1zm7 5h1v1h-1zm-224 3h1v1h-1zm137 0h1v1h-1zm-140 1h1v1h-1zm149 0h1v1h-1zm4 1h1v1h-1zm4 1h1v1h-1zm4 1h1v1h-1zm7 2h1v1h-1zm-174 2h1v1h-1zm258 13h1v1h-1zm3 4h1v1h-1zm11 16h1v1h-1zm13 28h1v1h-1zm-29 24h1v1h-1zm36 4h1v1h-1zm-34 6h1v1h-1zm1 8h1v1h-1zm0 24h1v1h-1zm-1 7h1v1h-1zm33 10h1v1h-1zm-38 10h1v1h-1zm-2 5h1v1h-1zm-2 5h1v1h-1zm25 27h1v1h-1zm-16 24v-1h2v1h-1zm-67 10h1v1h-1zm-2 1h1v1h-1zm-4 2h1v1h-1zm-185 4h1v1h-1zm1 2h1v1h-1zm158 2h1v1h-1zm-155 1h1v1h-1zm150 0h1v1h-1zm-7 1h1v1h-1zm67 15h1v1h-1zm-35 15h1v1h-1zm-4 1h1v1h-1zm-8 2h1v1h-1zm-6 1h1v1h-1zm-175 1h1v1h-1zm169 0h1v1h-1zm-164 2v-1h11 1 11v1zm24-1h1v1h-1zm67 0h1v1h-1zm59 1v-1h5v1z"/>
		<path id="Path 13" class="s13" d="m187 3h1v1h-1zm-165 1h1v1h-1zm-8 4h1v1h-1zm209 2h1v1h-1zm11 4h1v1h-1zm20 10h1v1h-1zm5 3h1v1h-1zm-213 11h1v1h-1zm256 29h1v1h-1zm19 35h1v1h-1zm5 15h1v1h-1zm5 26h1v1h-1zm-294 132v-106h1v14 1 5 1 5 1 25 1 15 1 8 1 6 1 2 1 3 1 14zm294-99h1v1h-1zm-1 8h1v1h-1zm-2 10h1v1h-1zm-36 3h1v1h-1zm-11 25h1v1h-1zm-5 8h1v1h-1zm-5 7h1v1h-1zm-28 26h1v1h-1zm-10 6h1v1h-1zm-2 1h1v1h-1zm-29 11h1v1h-1zm-158 3h1v1h-1zm-41 11h1v1h-1zm247 5h1v1h-1zm-27 12h1v1h-1zm-19 5h1v1h-1zm-141 2v-1h4v1zm-11 1h1v1h-1zm2 1v-1h8v1zm9 0v-1h3v1zm6 0v-1h14v1zm16-1h1v1h-1zm3 1v-1h10v1zm11-1h1v1h-1zm3 1v-1h18v1zm19 0v-1h10v1zm11 0v-1h15v1zm19 0v-1h6v1h-2zm7 0v-1h4v1zm7 0v-1h7v1zm11 0v-1h3v1z"/>
		<path id="Path 14" class="s14" d="m280 223h1v1h-1z"/>
		<path id="Path 15" fill-rule="evenodd" class="s15" d="m5 20h1v1h-1zm-1 4v-1h1v2h-1zm252 2h1v1h-1zm-253 264v-242h1v20 1 4 40 1 21 5 1 12 1 10 17 1 1 43 1 16 1 10 1 4 1 7 1 6 1 1 1 1 2 2 13h-1v-3zm308-208h1v1h-1zm-275 11h1v1h-1zm0 3h1v1h-1zm285 7v-2 1zm-285 3h1v1h-1zm253 8v-1l1 2h-1zm1 3v-1l1 2h-1zm-254 0h1v1h-1zm255 2v-1l2 5h-1v-1l-1-1v-1zm2 5v-1l1 4h-1v-1-1zm35 1v-2 1zm0 5v-2h1v1 1zm-292 3v-2h1v2zm294 2v-2 1zm-294 135v-136h1v35 106l-1-2v-2zm261-128v-1l2 7v1l4 32-7 13-1 3-11 23v-1-1l1-1v-1l1-1v-1l1-1v-1-1l1-1v-1l1-1v-1-1l1-1v-1l1-1v-1-1l1-1v-1-1l1-1v-1-1l1-1v-1-1-1l1-1v-1-1-1l1-1v-1-1-1-1l1-1v-1-2-1-1l1-2v-1-1-1-1-1-2-11-2-2-2-1-1l-1-1v-1-1-1zm34 39l-3-29 2-5 2 3v1 2 1 7 5 2 5 1l-1 2v1 1 1 1zm-8 33v-2 1zm-3 6l1-2v1 1zm-38 1l1-1h1l-2 3v-1zm37 1l1-2v1 1zm-2 5l2-5v1 1 1l-1 1v1zm-36-3v-1h1l-1 2zm-1 1h1v1h-1zm-1 2v-1h1l-1 2zm37 2l1-2v1 1zm-38 0v-1h1l-1 2zm-1 1h1v1h-1zm-2 2l1-1h1l-2 3v-1zm-2 3l1-1h1v2l-1 1v1 1l-2 2-1 2h-1l-1 1-1 1v1l-11 8v-1l1-1 1-1 1-1 1-1 1-1 1-1 1-1 1-1 1-1 1-1 1-1 1-1 1-1v-1l1-1 1-1v-1zm1 2l1-1v3l-1-1zm33 8l5-8v1 1l-1 1v1l-1 1-1 1v1l-1 1zm-32-6v2l-1-2zm-6 5l1-1h1l-2 2zm26 6l6-7 2 6 4-4v1 1l-1 1v1l-1 1-1 1v1l-1 1-1 1v1l-1 1-1 1-1 1v1l-1 1h-2v-1l1-1 1-2 1-1-1 1-1 2-1 1-1 1-1 2-1 1-1 1-1 1-1 1-1 1-1 1-1 1-1 2h-2l1-7 5-5zm-27-5h1v1h-1zm-12 9h1v1h-1zm-2 2v-1h1 1v1zm-1 0h1v1h-1zm-1 1h1v1h-1zm-1 1h1v1h-1zm-1 1h1v1h-1zm-3 2l1-1h1 1l-3 2zm47 1l1-2h1v1 1 1l-1 1-1 1-1 1-1 1-1 1-1 1-1 1-1 1v1l-1 1-1 1-1 1-1 1-1 1-1 1-1 1h-1-1l5-6 2-2 1-2 1-1 1-1 1-1 1-1 1-1 1-1zm-48 0h1v1h-1zm-2 2v-1h1 1zm-3 1h1v1h-1zm-3 2l1-1h1l-9 6-1 7-8 2-1-3-19 6h-3l-2 1h-4-1l-2-1h1 1 1 1l1-1h1 1 1l1-1h1 1 1l1-1h1 1 1l1-1h1 1 1l1-1h1 1l1-1h1 1l1-1h1 1l1-1h1l1-1h1l1-1h1l1-1h1l1-1h1l1-1h1l1-1h1l1-1h1l1-1h1zm-200 13v-3 1 1zm4 4l-4-4h1l1 1 1 1 1 1zm232-2l1-1h2v1l-1 1-1 1-1 1h-1-1zm-214 36v-33h1 1 1 1 3 1 1v33h-2-4zm36-33v2h-9l2-2zm16 0v2l-7-2h4 1zm2 1v-1h6 1zm57 3l-36-2 1-2h1 1 1 1 12 8 1 1 1l2 1h1l2-1h1 1 1 4 1 2 2 2 3 1l-14 2 1 2zm98-3l1-1h2v1l-1 1-1 1h-1-1zm-7 5l6-3v1l-1 1-1 1-1 1h-1l-1 1-1 1h-1l-1 1h-1-1v-1l1-1 2-1zm-7 5l1-1h1 1v1l-1 1h-1-1zm-2 1h1v1h-1zm-1 1h1v1h-1zm-6 3l1-1h1 1 1v1h-1l-1 1h-1l-1 1h-1l-1 1h-1l-1 1h-1l-1 1h-1l-1 1h-1l-1 1h-1-1l-1 1h-1l-1 1h-1-1l-1 1h-1l-1 1h-1-1-1l-1 1h-1l-1 1h-1-1-1l-1 1h-1-1-1l-1 1h-1-1-1l-1 1h-1-1-1-1l-1 1h-1-1-1-1-1l-1 1h-1-1l8-3h1l17-4 2-4 1-3 4 2h2 3l1-1 3-1 2-1 3-1 1-1h1l1-1zm-240 2h1v1h-1zm28 8h7l-1 5h-1l-1 2h-2-1-7l6 1h1 1 4v1h-11-1-1-1l-1-1h-1-1-1l-1-1h-1l-1-1h-1-1l-1-1-1-1 9 2v-4h10zm5 7v-2h1l1 2zm3 0h2-1zm150 1v-1h1l1 1h-1zm-151 1v-1h2 1 19 4 112 1 4l2 1h-1-1-5-3-4-7-3-4-1-6-4-15-1-10-1-18-2-1-1-10-2-1-2-14-3-3-1-8-1-1z"/>
		<path id="Path 16" fill-rule="evenodd" class="s16" d="m26 4l1-1h2 98 39 4 1 10 4 1l1 1h1 2 1 2 1 1l2 1h1 1 1 1 1l1 1h2 1 1l1 1h2 1l2 1h1 1 1l1 1h1 1l1 1h1 1 1l1 1h1 1l1 1h1l1 1h1 1l1 1h1 1l1 1h1l1 1h1l1 1h1l1 1h1 1l1 1h1l1 1 1 1h1 1l1 1h1l1 1 1 1h1l1 1h1v1 1h1 1 1l1 1h1l1 1 1 1h1l1 1 1 1h1l1 1 1 1h1l1 1 1 1 1 1h1l1 1 1 1 1 1 1 1 1 1h1l1 1 1 1 1 1 1 1 1 1 1 1 1 1 1 1 1 1 1 1 1 1 1 1 1 1 1 1 1 1v1l1 1 1 1 1 1v1l1 1 1 1 1 1 1 1v1l1 1 1 1 1 1v1l1 1v1l1 1 1 1v1l1 1 1 1v1l1 1v1 1l1 1h1v1 1h1v1 1h1v1l1 1v1 1h1v1l1 1v1 1l1 1v1 1h1v1 1h1v1 2h1v1 1l1 1v1l1 1v1 1 1l1 1v1 1h1v1 1 1l1 1v1 1 1l1 1v1 2l1 1v1 1h-1v2h1l1 1v1 1 2 1l1 1v1 1 1 1 1 1 1l1 1v1 1 2 1l-2-3-2 5 3 29v1 1l-1 1v1 1 1 1 1l-1 1v1 1 1l-1 1v1 1 1 1l-1 1v1 1 1l-1 1v1 1l-1 1v1 1 1l-1 2v1h-1v2 1l-1 1v1 1h-1l-1 2-1 2-2 5-1 2v1 1h-1v1 1l-1 1v1l-1 1v1h-1l-5 8-4 4-2-6-6 7-5 9-5 5-1 7v2l-5 6-1 1-1 1h-2v-1-1 1l-1 1v1l-2 3h-2l-1 1-1 2-6 3-1 1-2 1-1 1v1h-1-1l-1 1v1h-1-1v1h-1v1 1h-1l-1-1h-1l-1 1h-1l-1 1h-1l-1 1h-1l-1 1-3 1-2 1-3 1-1 1h-3-2l-4-2-1 3-2 4-17 4h-1l-8 3h-1l-1-1h-1v1l-2 1h-2-1-1l-2-1h-4-1l-110-1v-33h8 12l-2 2h9v-2h8 1l7 2v-2h2v1l7-1h15l-1 2 36 2h2 1 1 1-1-1-1l-1-2 14-2 2-1h1 1l2 1h1 4l2-1h3l19-6 1 3 8-2 1-7 9-6h1l1-1v-1h1 1l2-1 1-1 3-2 1-1h1 1l1-1v-1-1h2l1-1v-1l11-8 1-1 2-2 1-2 2-2 1 2v-2-3-2l2-3 1-1 1-2 1-2 1-1 1-2 2-3 11-23 1-3h1-1l7-13-4-32v-1l-2-7-1-1v-1-1-1-1l-1-1v-1-1-2h-1v-1-1-1-1l-1-4-2-5-1-2v-1l-1-2h-1v-1l-1-1v-1l-1-1v-1-1l-1-1v-1l-1-1v-1l-1-1-1-1v-1l-1-1v-1l-1-1-1-1v-1-1h-1v-1-1l-1-1h-1l-1-1v-1l-1-1-1-1-1-1v-1l-1-1-1-1-1-1-1-1-1-1-1-1-1-1-1-1-1-1v-1l-1-1-1-1-1-1-1-1h-1l-1-1-1-1-1-1-1-1h-1l-1-1-1-1-1-1-1-1h-1l-1-1-1-1-1-1h-1l-1-1-1-1h-1l-1-1h-1l-1-1-1-1h-1l-1-1h-1l-1-1h-1l-1-1h-1l-1-1h-1l-1-1h-1l-1-1h-1l-1-1h-1-1l-1-1h-1l-1-1h-1-1l-1-1h-1l-1-1h-1-1-1l-1-1h-1-1l-1-1h-1-1-1l-1-1h-1-1-1l-1-1h-1-1-1l-1-1h-1-3-1-1l-3-1h-1-3-2-1-27-101-2-1-1l-1 1h-1l-1 1-1 1-1 1-1 1-1 1v1l-1 1v1 1l-1 45h-1v-45l-3-4v14h-3l-3-8 1-15 5-13 14-2-20-1-2-8-1 8h-3l1-4-4-1-1-5-3 1v-1l1-1 1-1h1l1-1h1 1l1-1h1 1l1-1h1zm-15 7l1-1h1 1l-4 4v-1-1zm-3 4l1-1h1l-3 4v-1-1zm-2 4v-1h1l-1 2zm-2 3l1-1h1l-1 2h-1zm-1 4l1-1h1l-1 23h-1v-18-2-1zm2 274l1-176 2-7 2 4v-6l1 4h3v-16h-4l-1-5-2 7-1-17 1-11 3 6v-6l3-3 1 3 1-27 4-2 2 19v-26l1 40 8-11h3l2 192-2 3 3 5v1 2l1 2h1v2 3l4 4h1 1l1 1h1 1 7 1 2 1 1 1v33h-11-4-1-2-1l-1-2 1-5h-7v2h-10v4l-9-2h-1l-1-1-1-1-1-1-1-1-1-1v-1-1h-1l-1-1v-1l-1-1v-1h1v-1h-1l-1-1v-1zm31-204v-2h1v2zm0 10v-9h1v9zm0 11v-10h1v10zm0 14v-13h1v13zm256-8h1v1h-1zm-256 10h1v1h-1zm295 43l1-2v1 1zm-45 37h1v1h-1zm-2 4h1v1h-1zm-1 2h1v1h-1zm36 3h1v1h-1zm-42 7h1v1h-1zm-8 11h1v1h-1zm38 5h1v1h-1zm-52 9h1v1h-1zm-2 3h1v1h-1zm-1 1h1v1h-1zm-3 1h1v1h-1zm-4 3h1v1h-1zm39 11v-2h2zm-5 6h1v1h-1zm-5 2h1v1h-1zm-270 14v-13l1 18h-1v-1-1-1-1zm190-12h1v1h-1zm-34 2h-8 2 1 1zm5 1l-2-1h2zm1 0v-1h2zm9-1h-4 3zm97 0h1v1h-1zm-4 3h1v1h-1zm-10 7h1v1h-1zm-5 3h1v1h-1zm-4 1h1v1h-1zm-211 19l1-2v2zm-4 1l-6-1h7zm1-1h1v1h-1zm8 0h1v1h-1z"/>
		<path id="Path 17" fill-rule="evenodd" class="s17" d="m26 3h1v1h-1zm160 0h1v1h-1zm-163 1h1v1h-1zm174 1l-2-1h2zm-177 0h1v1h-1zm182 0h1v1h-1zm-185 1h1v1h-1zm190 0h1v1h-1zm6 2l-2-1h1 1zm3 0h1v1h-1zm-202 2l3-1 1 5 4 1-1 4h3l1-8 2 8 20 1-14 2-5 13-1 15 3 8h3v-14l3 4v45 1 2 1 9 1 10 1 13 2 1 136l-3-5 2-3-2-192h-3l-8 11-1-40v26l-2-19-4 2-1 27-1-3-3 3v6l-3-6-1 11 1 17 2-7 1 5h4v16h-3l-1-4v6l-2-4-2 7-1 176-1-18v-2-2-1-1-1-1-6-1-7-1-4-1-10-1-16-1-43-1-1-17-10-1-12-1-5-21-1-40-4-1-20l1-23v-2l1-2v-1l1-2 3-4zm-1-1h1v1h-1zm206 0h1v1h-1zm7 2h1v1h-1zm2 1h1v1h-1zm-219 1h1v1h-1zm222 0h1v1h-1zm5 2h1v1h-1zm2 1h1v1h-1zm-232 1h1v1h-1zm234 0h1v1h-1zm-235 2h1v1h-1zm241 1h1v1h-1zm-242 1h1v1h-1zm248 2h1v1h-1zm-249 2h1v1h-1zm254 1h1v1h-1zm5 3h1v1h-1zm3 2h1v1h-1zm3 2h1v1h-1zm4 3h1v1h-1zm-87 3v-1l3 1h-1zm92 1h1v1h-1zm1 1h1v1h-1zm-241 52l1-45v1 120h-1v-35-1-2-13-1-10-1-9-1-2zm258-35h1v1h-1zm3 4h1v1h-1zm10 14h1v1h-1zm3 5h1v1h-1zm-34 11h1v1h-1zm41 3h1v1h-1zm4 10h1v1h-1zm2 6h1v1h-1zm-35 4h1v1h-1zm1 3h1v1h-1zm37 3h1v1h-1zm1 4h1v1h-1zm-35 2h1v1h-1zm36 3h1v1h-1zm1 6h1v1h-1zm1 8h1v1h-1zm-34 4h1v1h-1zm0 27v-1h1l-1 2zm-1 6h1v1h-1zm-1 5h1v1h-1zm-1 4h1v1h-1zm-1 4h1v1h-1zm-3 9h1v1h-1zm-2 5h1v1h-1zm35 4h1v1h-1zm-38 3h1v1h-1zm35 5h1v1h-1zm-40 4h1v1h-1zm-2 3h1v1h-1zm39 0h1v1h-1zm-1 2h1v1h-1zm-1 2h1v1h-1zm-41 2h1v1h-1zm-6 8h1v1h-1zm-11 11h1v1h-1zm-1 1h1v1h-1zm0 2h1v1h-1zm-6 3h1v1h-1zm3 0h1v1h-1zm-7 3h1v1h-1zm50 0h1v1h-1zm-59 6h1v1h-1zm-2 1h1v1h-1zm-14 7h1v1h-1zm-2 1h1v1h-1zm-3 1h1v1h-1zm-3 1h1v1h-1zm-175 1h1v1h-1zm172 0h1v1h-1zm-4 1h1v1h-1zm72 0h1v1h-1zm-1 1h1v1h-1zm-79 1h1v1h-1zm-5 1h1v1h-1zm-7 2v-1h1 1zm-21 0h1v1h-1zm-162 11h1v1h-1zm251 2v-1h1 1v1h-1zm-250 2h1v1h-1zm4 8h1v1h-1zm201 8h1v1h-1zm-140 2l110 1h-112v-1zm-33 1v-1h2 1 2 1 1v1h-2-1zm8 0v-1h1 4 11 3v1zm154-1h1v1h-1zm-8 2l2-1h1v1h-2zm-128 0h1v1h-1zm4 1v-1h3v1zm17 0v-1h2v1zm3 0v-1h2v1zm12-1h1v1h-1zm2 1v-1h2v1zm31-1h1v1h-1zm16 1v-1h4v1zm10-1h1v1h-1zm5 1v-1h3v1h-1zm10 0v-1h4v1z"/>
		<path id="Path 18" class="s0" d="m214 77h1v1h-1zm-4 7h1v1h-1zm27 2h1v1h-1zm1 1h1v1h-1zm1 1h1v1h-1zm1 1h1v1h-1zm1 1h1v1h-1zm1 1h1v1h-1zm1 1h1v1h-1zm-39 2h1v1h-1zm23 3h1v1h-1zm27 8h1v1h-1zm2 3h1v1h-1zm2 3h1v1h-1zm-37 9h1v1h-1zm1 1h1v1h-1zm42 2h1v1h-1zm-38 4h1v1h-1zm40 1h1v1h-1zm-89 2h1v1h-1zm52 2h1v1h-1zm-44 1h1v1h-1zm3 2h1v1h-1zm-38 2h1v1h-1zm81 0h1v1h-1zm38 1h1v1h-1zm-37 2h1v1h-1zm38 2h1v1h-1zm-125 1h1v1h-1zm-3 6h1v1h-1zm57 0h1v1h-1zm-59 10h1v1h-1zm0 2h1v1h-1zm61 1h1v1h-1zm-60 6h1v1h-1zm114 2v-1l2 1zm-21 3l1-2v1 1zm37 0h1v1h-1zm-2 10h1v1h-1zm-81 3h1v1h-1zm42 0h1v1h-1zm38 0h1v1h-1zm26 0h1v1h-1zm-109 2h1v1h-1zm-2 1h1v1h-1zm-18 2h1v1h-1zm61 3h1v1h-1zm39 1h1v1h-1zm-3 7h1v1h-1zm-1 2h1v1h-1zm-1 2h1v1h-1zm-163 2h1v1h-1zm119 0h1v1h-1zm71 0h1v1h-1zm-67 6h1v1h-1zm64 1h1v1h-1zm-62 2h1v1h-1zm30 2h1v1h-1zm-60 3h1v1h-1zm88 0h1v1h-1zm-31 1h1v1h-1zm-21 3h1v1h-1zm-164 3h1v1h-1zm211 1h1v1h-1zm-33 1h1v1h-1zm-9 2h1v1h-1zm-24 4h1v1h-1zm61 0h1v1h-1zm-4 5h1v1h-1zm-51 5h1v1h-1zm-2 4h1v1h-1zm44 0h1v1h-1zm-191 6h1v1h-1zm180 3h1v1h-1zm-3 2h1v1h-1zm-3 2h1v1h-1zm-5 3h1v1h-1zm-14 7h1v1h-1zm-11 4h1v1h-1zm-17 4h1v1h-1zm-7 1h1v1h-1z"/>
		<path id="Path 19" fill-rule="evenodd" class="s1" d="m64 74h1v1h-1zm171 12h1v1h-1zm-131 12h1v1h-1zm77 0h1v1h-1zm7 1h1v1h-1zm-91 6h1v1h-1zm57 29h1v1h-1zm-5 4h1v1h-1zm143 56h1v1h-1zm-219 20l-4-1h4zm1 0v-1h3v1zm7-1h1v1h-1zm118 7h1v1h-1zm-23 6l2-1v1zm-111 0h1v1h-1zm150 24h1v1h-1zm-18 7h1v1h-1zm-11 2h1v1h-1zm47 9h1v1h-1zm-8 4h1v1h-1zm-2 1h1v1h-1zm-184 6h1v1h-1zm4 4h1v1h-1z"/>
		<path id="Path 20" class="s2" d="m184 65v-1l3 1zm8 0h1v1h-1zm-122 1h1v1h-1zm31 33h1v1h-1zm-3 3h1v1h-1zm-1 12v-8h1v8zm0 7h1v1h-1zm59 12h1v1h-1zm-59 9v-2h1v2zm0 3h1v1h-1zm59 43h1v1h-1zm-83 25h1v1h-1zm4 1v-1h3 1v1zm5 0v-1h7 1 1v1z"/>
		<path id="Path 21" class="s3" d="m74 64h1v1h-1zm123 2h1v1h-1zm4 1h1v1h-1zm6 22h1v1h-1zm-25 9h1v1h-1zm7 1h1v1h-1zm4 1h1v1h-1zm57 0h1v1h-1zm-153 21v-7h1v7zm166 0h1v1h-1zm-166 19v-18h1v18zm67-10h1v1h-1zm12 0h1v1h-1zm52 0h1v1h-1zm-48 1h1v1h-1zm-22 1h1v1h-1zm110 3h1v1h-1zm-171 10v-3h1v3zm100 0h1v1h-1zm-100 63v-62h1v62zm101-61h1v1h-1zm-57 6h1v1h-1zm59 0h1v1h-1zm-60 7h1v1h-1zm114 9h1v1h-1zm-111 5h1v1h-1zm153 0h1v1h-1zm-63 3h1v1h-1zm37 1h1v1h-1zm-117 8h1v1h-1zm8 4h1v1h-1zm5 1h1v1h-1zm10 0h1v1h-1zm41 15h1v1h-1zm-126 7h1v1h-1zm165 0h1v1h-1zm29 0h1v1h-1zm-2 4h1v1h-1zm-85 3h1v1h-1zm-2 1h1v1h-1zm-13 3h1v1h-1zm65 0h1v1h-1zm29 3h1v1h-1zm-213 7v-4h1v4zm177-2h1v1h-1zm-1 1h1v1h-1zm-6 1h1v1h-1zm5 0h1v1h-1zm-4 1h1v1h-1zm-23 7h1v1h-1zm-4 11h1v1h-1zm-5 2h1v1h-1zm47 2h1v1h-1zm-58 1h1v1h-1zm27 17h1v1h-1zm-3 1h1v1h-1zm-3 1h1v1h-1zm-6 2h1v1h-1zm-4 1h1v1h-1zm-4 1h1v1h-1z"/>
		<path id="Path 22" class="s4" d="m204 68h1v1h-1zm3 1h1v1h-1zm-141 1h1v1h-1zm-1 2h1v1h-1zm-1 3h1v1h-1zm144 12h1v1h-1zm25 2h1v1h-1zm-2 3h1v1h-1zm-30 7h1v1h-1zm24 1h1v1h-1zm-28 1h1v1h-1zm22 7h1v1h-1zm-2 3h1v1h-1zm42 2h1v1h-1zm-42 2h1v1h-1zm6 7h1v1h-1zm2 3h1v1h-1zm40 1h1v1h-1zm-100 4h1v1h-1zm-4 1h1v1h-1zm69 3h1v1h-1zm39 5h1v1h-1zm-36 4h1v1h-1zm37 0h1v1h-1zm-70 25h1v1h-1zm35 1h1v1h-1zm12 1v-1h3v1h-1zm5 0v-1h2v1zm19 0h1v1h-1zm-129 1h1v1h-1zm2 5h1v1h-1zm2 3h1v1h-1zm49 0h1v1h-1zm100 3h1v1h-1zm-115 8h1v1h-1zm48 1h1v1h-1zm65 0h1v1h-1zm-68 5h1v1h-1zm-2 3h1v1h-1zm-5 6h1v1h-1zm70 1h1v1h-1zm-71 4h1v1h-1zm-153 1h1v1h-1zm154 0h1v1h-1zm68 0h1v1h-1zm-32 5h1v1h-1zm28 3h1v1h-1zm-58 1h1v1h-1zm27 0h1v1h-1zm-62 3h1v1h-1zm12 0h1v1h-1zm26 1h1v1h-1zm52 0h1v1h-1zm-76 3h1v1h-1zm3 5h1v1h-1zm67 1h1v1h-1zm-2 3h1v1h-1zm-4 5h1v1h-1zm-11 11h1v1h-1zm-192 1h1v1h-1zm136 3h1v1h-1zm-15 3h1v1h-1z"/>
		<path id="Path 23" class="s5" d="m263 76h1v1h-1zm-58 16h1v1h-1zm23 4h1v1h-1zm-6 8h1v1h-1zm31 0h1v1h-1zm9 15h1v1h-1zm-35 9h1v1h-1zm39 1h1v1h-1zm1 3h1v1h-1zm-17 38v-1h2v1zm-16 3h1v1h-1zm36 4h1v1h-1zm-38 4h1v1h-1zm37 1h1v1h-1zm-38 2h1v1h-1zm-2 5h1v1h-1zm38 0h1v1h-1zm-1 3h1v1h-1zm-2 5h1v1h-1zm27 1h1v1h-1zm-72 6h1v1h-1zm-155 5h1v1h-1z"/>
		<path id="Path 24" fill-rule="evenodd" class="s6" d="m264 77h1v1h-1zm-53 5h1v1h-1zm-108 16h1v1h-1zm80 0h1v1h-1zm66 1h1v1h-1zm-55 1h1v1h-1zm-97 4h1v1h-1zm158 3h1v1h-1zm2 3h1v1h-1zm-41 4h1v1h-1zm44 1h1v1h-1zm1 2h1v1h-1zm-86 13h1v1h-1zm-22 5h1v1h-1zm78 1h1v1h-1zm1 3h1v1h-1zm-86 3h1v1h-1zm49 0h1v1h-1zm-51 3h1v1h-1zm91 3l-1-2h1zm-92-1h1v1h-1zm-1 3h1v1h-1zm-1 4h1v1h-1zm59 0h1v1h-1zm-59 13h1v1h-1zm104 3v-1h2v1zm25 0h1v1h-1zm1 2h1v1h-1zm-109 18h1v1h-1zm5 2v-1h2v1zm8-1h1v1h-1zm52 2h1v1h-1zm63 8h1v1h-1zm-1 3h1v1h-1zm-96 18h1v1h-1zm-9 2h1v1h-1zm-6 1h1v1h-1zm24 0h1v1h-1zm45 0h1v1h-1zm-16 5h1v1h-1zm-167 23v-19h1v19zm143-19h1v1h-1zm3 5h1v1h-1zm3 5h1v1h-1zm-8 10h1v1h-1zm-9 3h1v1h-1zm-5 1h1v1h-1zm-121 1h1v1h-1zm114 0h1v1h-1zm-144 22h1v1h-1z"/>
		<path id="Path 25" class="s7" d="m75 64h1v1h-1zm107 1v-1h2v1zm-110 0h1v1h-1zm119 0h1v1h-1zm5 1h1v1h-1zm56 0h1v1h-1zm-183 1h1v1h-1zm131 0h1v1h-1zm9 3h1v1h-1zm2 1h1v1h-1zm4 2h1v1h-1zm0 2h1v1h-1zm-151 22v-21h1v21zm201-19h1v1h-1zm-63 19h1v1h-1zm-18 1h1v1h-1zm6 1h1v1h-1zm30 8h1v1h-1zm-4 6h1v1h-1zm48 11h1v1h-1zm-200 28v-22h1v22zm102-21v-1h2v1zm8-1h1v1h-1zm5 1h1v1h-1zm3 1h1v1h-1zm2 1h1v1h-1zm2 1h1v1h-1zm3 2h1v1h-1zm79 0h1v1h-1zm-35 6h1v1h-1zm37 2h1v1h-1zm-71 6h1v1h-1zm1 17h1v1h-1zm39 3v-1h6v1zm-40 1h1v1h-1zm35 3h1v1h-1zm36 2h1v1h-1zm-37 2h1v1h-1zm-44 7h1v1h-1zm-34 2h1v1h-1zm75 0h1v1h-1zm-71 2h1v1h-1zm15 2h1v1h-1zm91 3h1v1h-1zm-201 12v-6h1v6zm156-3h1v1h-1zm-156 5h1v1h-1zm0 2h1v1h-1zm193 1h1v1h-1zm-36 4h1v1h-1zm2 3h1v1h-1zm-33 5h1v1h-1zm-5 1h1v1h-1zm93 2h1v1h-1zm-49 1h1v1h-1zm-25 2h1v1h-1zm72 0h1v1h-1zm-8 11h1v1h-1zm-58 12h1v1h-1zm45 1h1v1h-1zm-1 1h1v1h-1zm-189 1h1v1h-1zm184 3h1v1h-1zm-67 2v-1h2v1zm63 1h1v1h-1zm-3 2h1v1h-1zm-3 2h1v1h-1zm-2 1h1v1h-1zm-5 3h1v1h-1zm-2 1h1v1h-1zm-2 1h1v1h-1zm-187 11h1v1h-1z"/>
		<path id="Path 26" class="s8" d="m76 64h1v1h-1zm137 8h1v1h-1zm-1 8h1v1h-1zm-3 5h1v1h-1zm-3 5h1v1h-1zm-3 5h1v1h-1zm26 0h1v1h-1zm-165 35v-33h1v33zm184-32h1v1h-1zm-25 5h1v1h-1zm29 0h1v1h-1zm-28 20h1v1h-1zm-34 14h1v1h-1zm79 3h1v1h-1zm1 5h1v1h-1zm-206 55v-48h1v48zm136-45h1v1h-1zm-59 11h1v1h-1zm96 4v-1h2v1zm34 1h1v1h-1zm-128 2h1v1h-1zm53 4h1v1h-1zm-49 3h1v1h-1zm47 0h1v1h-1zm75 1h1v1h-1zm-117 4h1v1h-1zm116 0h1v1h-1zm-82 2h1v1h-1zm-29 1h1v1h-1zm27 0h1v1h-1zm-2 1h1v1h-1zm-3 1h1v1h-1zm-10 2v-1h2v1zm4-1h1v1h-1zm51 7h1v1h-1zm39 1h1v1h-1zm-1 2h1v1h-1zm-198 7v-2h1v2zm155 4h1v1h-1zm36 2h1v1h-1zm-30 7h1v1h-1zm56 0h1v1h-1zm-81 1h1v1h-1zm-21 3h1v1h-1zm95 7h1v1h-1zm-37 3h1v1h-1zm35 0h1v1h-1zm-3 4h1v1h-1zm-58 2h1v1h-1zm3 5h1v1h-1zm-12 9h1v1h-1zm-3 1h1v1h-1zm-131 2h1v1h-1zm122 0h1v1h-1zm-119 1h1v1h-1zm110 0h1v1h-1zm114 4h1v1h-1zm-8 9h1v1h-1zm-6 6h1v1h-1zm-268 36h1v1h-1z"/>
		<path id="Path 27" class="s9" d="m243 59h1v1h-1zm3 2h1v1h-1zm-47 6h1v1h-1zm-131 1h1v1h-1zm135 0h1v1h-1zm-136 1h1v1h-1zm139 0h1v1h-1zm50 0h1v1h-1zm-46 2h1v1h-1zm-145 2h1v1h-1zm149 0h1v1h-1zm-1 5h1v1h-1zm-6 10h1v1h-1zm25 3h1v1h-1zm-2 3h1v1h-1zm15 1h1v1h-1zm1 1h1v1h-1zm1 1h1v1h-1zm-62 1h1v1h-1zm2 0h1v1h-1zm40 0h1v1h-1zm-35 1h1v1h-1zm3 1h1v1h-1zm3 2v-1h2zm27-1h1v1h-1zm26 1h1v1h-1zm-29 3h1v1h-1zm32 1h1v1h-1zm-35 3h1v1h-1zm37 0h1v1h-1zm2 4h1v1h-1zm1 1h1v1h-1zm1 2h1v1h-1zm1 2h1v1h-1zm1 2h1v1h-1zm1 2h1v1h-1zm-38 2h1v1h-1zm41 6h1v1h-1zm-37 1h1v1h-1zm38 2h1v1h-1zm-80 2h1v1h-1zm81 2h1v1h-1zm-77 1h1v1h-1zm1 1h1v1h-1zm-44 1h1v1h-1zm45 0h1v1h-1zm-46 1h1v1h-1zm47 0h1v1h-1zm75 0h1v1h-1zm-124 3h1v1h-1zm51 0h1v1h-1zm74 2h1v1h-1zm-72 2h1v1h-1zm68 1h1v1h-1zm4 0h1v1h-1zm-71 2h1v1h-1zm-58 5h1v1h-1zm59 0h1v1h-1zm0 10v-2h1v2zm-59-1h1v1h-1zm1 5h1v1h-1zm57 0h1v1h-1zm-55 5h1v1h-1zm53 0h1v1h-1zm37 0h1v1h-1zm-1 5h1v1h-1zm36 0h1v1h-1zm-37 3h1v1h-1zm36 1h1v1h-1zm-105 6h1v1h-1zm15 0h1v1h-1zm-7 2v-1h2v1zm95-1h1v1h-1zm-38 1h1v1h-1zm36 4h1v1h-1zm-39 1h1v1h-1zm36 6h1v1h-1zm-1 2h1v1h-1zm-1 2h1v1h-1zm-1 2h1v1h-1zm-193 3h1v1h-1zm129 10h1v1h-1zm-3 1h1v1h-1zm-5 2v-1h2v1zm15-1h1v1h-1zm-127 3v-1h2v1zm172-1h1v1h-1zm-43 2h1v1h-1zm5 8h1v1h-1zm1 2h1v1h-1zm102 1h1v1h-1zm-101 1h1v1h-1zm100 1h1v1h-1zm-98 2h1v1h-1zm53 1h1v1h-1zm-50 4h1v1h-1zm46 0h1v1h-1zm-1 1h1v1h-1zm-53 4h1v1h-1zm-9 3h1v1h-1zm102 0h1v1h-1zm-105 1h1v1h-1zm-6 1h1v1h-1zm-117 2v-1h1 14v1zm24 0v-1h6v1zm7 0v-1h2v1zm74 0v-1h4v1zm89 30h1v1h-1zm-1 1h1v1h-1zm-3 2h1v1h-1zm-256 12h1v1h-1zm10 11h1v1h-1z"/>
		<path id="Path 28" class="s10" d="m238 56h1v1h-1zm9 6h1v1h-1zm3 2h1v1h-1zm1 1h1v1h-1zm6 5h1v1h-1zm9 9h1v1h-1zm1 1h1v1h-1zm1 1h1v1h-1zm1 1h1v1h-1zm1 1h1v1h-1zm2 3h1v1h-1zm1 1h1v1h-1zm2 3h1v1h-1zm4 6h1v1h-1zm-93 2h1v1h-1zm5 1h1v1h-1zm35 0h1v1h-1zm55 0h1v1h-1zm1 2h1v1h-1zm-61 5h1v1h-1zm65 3h1v1h-1zm-68 1h1v1h-1zm69 1h1v1h-1zm-70 1h1v1h-1zm41 0h1v1h-1zm-32 14h1v1h-1zm39 1h1v1h-1zm-37 2h1v1h-1zm4 9h1v1h-1zm-89 10h1v1h-1zm124 2v-1h2v1zm-125 1h1v1h-1zm58 15h1v1h-1zm36 3h1v1h-1zm-38 4h1v1h-1zm35 6h1v1h-1zm-1 3h1v1h-1zm-1 3h1v1h-1zm-44 1h1v1h-1zm80 2h1v1h-1zm-38 2h1v1h-1zm-3 5h1v1h-1zm-3 5h1v1h-1zm-1 1h1v1h-1zm-1 1h1v1h-1zm-4 6v-1h1v3h-1v-1zm-20 13h1v1h-1zm31 4h1v1h-1zm-26 1h1v1h-1zm3 5h1v1h-1zm1 2h1v1h-1zm58 12h1v1h-1zm-1 1h1v1h-1zm-1 1h1v1h-1zm43 2h1v1h-1zm-46 1h1v1h-1zm44 2h1v1h-1zm-50 3h1v1h-1zm48 0h1v1h-1zm-49 1h1v1h-1zm-4 3h1v1h-1zm50 0h1v1h-1zm-4 5h1v1h-1zm-8 9h1v1h-1zm-1 1h1v1h-1zm-1 1h1v1h-1zm-1 1h1v1h-1zm-1 1h1v1h-1zm-8 7h1v1h-1zm-267 23h1v1h-1zm2 3h1v1h-1zm1 1h1v1h-1zm1 1h1v1h-1zm1 1h1v1h-1z"/>
		<path id="Path 29" class="s11" d="m66 227h1v1h-1zm149 22h1v1h-1zm-147 8h1v1h-1z"/>
		<path id="Path 30" class="s12" d="m209 43h1v1h-1zm6 2h1v1h-1zm5 2h1v1h-1zm7 3h1v1h-1zm6 3h1v1h-1zm-156 12v-1h2v1zm-4 0h1v1h-1zm116 1v-1h2v1zm-118 0h1v1h-1zm124 0h1v1h-1zm13 4h1v1h-1zm4 2h1v1h-1zm3 2h1v1h-1zm19 14h1v1h-1zm5 1h1v1h-1zm-6 1h1v1h-1zm9 2h1v1h-1zm1 1h1v1h-1zm1 1h1v1h-1zm-16 3h1v1h-1zm-126 1h1v1h-1zm86 0h1v1h-1zm62 3h1v1h-1zm7 10h1v1h-1zm7 14h1v1h-1zm-96 6v-1h6v1zm-6 0h1v1h-1zm16 0h1v1h-1zm-19 2v-1h2v1zm22-1h1v1h-1zm-24 1h1v1h-1zm-2 1h1v1h-1zm-3 2h1v1h-1zm-1 1h1v1h-1zm-1 1h1v1h-1zm-1 1h1v1h-1zm84 2h1v1h-1zm-38 2h1v1h-1zm39 2h1v1h-1zm-90 1h1v1h-1zm53 0h1v1h-1zm73 1h1v1h-1zm-35 2h1v1h-1zm13 1v-1h2v1zm8 0v-1h2v1zm5-1h1v1h-1zm2 1v-1h3v1zm6-1h1v1h-1zm-127 3h1v1h-1zm-1 5h1v1h-1zm59 3v-3h1v3zm-59 5v-2h1v2zm59-2h1v1h-1zm-58 6h1v1h-1zm57 0h1v1h-1zm67 2v-1h4v1zm-32 5h1v1h-1zm33 11h1v1h-1zm-37 1h1v1h-1zm-70 1h1v1h-1zm4 1h1v1h-1zm162 12h1v1h-1zm-232 10h1v1h-1zm105 9h1v1h-1zm-19 5v-1h2v1h-1zm138-1h1v1h-1zm-252 2v-1h8v1h-7zm10 0v-1h65v1zm69 0v-1h14v1zm16-1h1v1h-1zm18 0h1v1h-1zm25 4h1v1h-1zm32 5h1v1h-1zm-23 10h1v1h-1zm-9 9h1v1h-1zm-3 1h1v1h-1zm-134 2h1v1h-1zm127 0h1v1h-1zm-6 1h1v1h-1zm-101 2v-1h9v1zm15-1h1v1h-1zm3 1v-1h72v1zm170 23h1v1h-1zm-5 4h1v1h-1zm-13 9h1v1h-1zm-19 10h1v1h-1zm-2 1h1v1h-1zm-10 4h1v1h-1zm-6 2h1v1h-1z"/>
		<path id="Path 31" class="s13" d="m40 42h1v1h-1zm189 9h1v1h-1zm2 1h1v1h-1zm9 5h1v1h-1zm-161 8v-1h2v1zm6-1h1v1h-1zm5 0h1v1h-1zm2 1v-1h2v1zm19-1h1v1h-1zm3 1v-1h13v1zm24 0v-1h8v1zm10 0v-1h14v1zm23 0v-1h11v1zm17 0h1v1h-1zm6 1h1v1h-1zm4 1h1v1h-1zm4 1h1v1h-1zm53 0h1v1h-1zm-50 1h1v1h-1zm31 17h1v1h-1zm2 2h1v1h-1zm3 3h1v1h-1zm-10 2h1v1h-1zm-93 5v-1h2v1zm4 0v-1h2v1zm20-1h1v1h-1zm8 0h1v1h-1zm110 0h1v1h-1zm-84 3h1v1h-1zm-98 1h1v1h-1zm-1 2h1v1h-1zm187 1h1v1h-1zm-31 1h1v1h-1zm-26 22h1v1h-1zm-44 6h1v1h-1zm84 1h1v1h-1zm-79 2h1v1h-1zm80 2h1v1h-1zm1 4h1v1h-1zm-126 7h1v1h-1zm95 1v-1h2 2v1zm6 0v-1h4v1zm6 0v-1h3 3v1zm8 0v-1h3v1zm4-1h1v1h-1zm-62 14v-3h1v2 1zm35 7h1v1h-1zm28 1v-1h3v1zm-32 15h1v1h-1zm-135 25v-2h1zm-30 2v-1l2 1zm27-1h1v1h-1zm102 10h1v1h-1zm-54 5v-1h4v1zm18 0v-1h2v1zm3 0v-1h13v1zm-97 2v-2h1v1zm142 6h1v1h-1zm101 9h1v1h-1zm-94 3h1v1h-1zm-148 9h1v1h-1zm165 53h1v1h-1z"/>
		<path id="Path 32" class="s14" d="m224 102h1v1h-1zm-83 53h1v1h-1zm91 76h1v1h-1z"/>
		<path id="Path 33" fill-rule="evenodd" class="s15" d="m73 66l1-1h1 1 1 2 2 2l-11 4v1l-3 3v139l5 1h-1-4-1l-2-1h-1v-1-1-1-1-2-6-48-22-33-21-1l1-1v-1-1l1-1v-1l1-1 1-1h1l1-1 1-1zm123 32l5-7-2-7h3v-4l-3-11-5-2h1 1 1l1 1h1 1 1l1 1h1 1 1l1 1h1 1l1 1h1l1 1h1l1 1h1l1 1v1 1l-1 1-1 1v1l-1 1v1l-1 1v1l-1 1-1 1v1l-1 1-1 1v1l-1 1v1l-1 1v1l-1 1-1 1v1l-1 1v1l-1 1v1l-1 1h-2l-1-1h-1-1-1l-1-1h-1-1l5-1 2 1h1v-1h-1zm116-14h1v1h-1zm1 2h1v1h-1zm-78 2l1-1h1l1 1 1 1 1 1 1 1 1 1 1 1 1 1 1 1 1 1 1 1 1 1 1 1v1l1 1 1 1 1 1v1l1 1 1 1 1 1v1l1 1 1 1v1l1 1v1l1 1 1 1v1l1 1v1l1 1v1 1l1 1v1l1 1v1l1 1v1 1l1 1v1 1l1 1v1 1 1l1 1v1 1 1l1 1v1 1 1l1 1v1 1 1 1 1h-1-2-1-3-1-1-3-2-3v-1l5-1 3-11-3-3 5-2-6-16-4-6-1-2-1-1h-1l-2 4-8-11-6-3-4 3-3 2v-1-1l1-1 1-1 1-1v-1l1-1 1-1v-1l1-1 1-1v-1zm80 2h1v1h-1zm-38 1h1v1h-1zm2 3h1v1h-1zm-172 3l7-1v1zm8-1h1v1h-1zm14 1v-1h2v1zm9 0v-1h3v1h-1zm6-1h1v1h-1zm2 1v-1h2v1zm3-1h1v1h-1zm3 0h1v1h-1zm9 0h1v1h-1zm2 1v-1h8v1h-1zm-62 1h4-1-1-1zm217-1h1v1h-1zm-220 4l3-3v1l-1 1-1 1zm221-2h1v1h-1zm-94 3l1-1h1l-3 4v-1-1zm-128 2v-2 1zm126 1h1v1h-1zm-1 1h1v1h-1zm31 3l-1 2-2-5h1l1 1zm-32-1v-1h1l1 13h-1l-1-1-1-1-1-1-1-1v-1l-1-1v-1l1-1v-1l1-1 1-1zm102 2h1v1h-1zm1 3h1v1h-1zm-99 10v-1l1 2h-1zm-62 9l1-1h1 1 2 6 1 1 1l1 1h1 1l1 1h1 1l1 1h1l1 1h1l1 1 1 1 1 1h1l1 1 1 1 1 1v1l1 1 1 1v1l1 1v1l1 1v1l1 1v1 1l1 1v1 1 1 1 3 3 1 2 1 1l-1 1v1 1 1l-1 1v1l-1 1v1l-1 1v1l-1 1h-1v-2l1-2-1 2v-13l-14-23-12 1-2-1 2-3-7-1 1 2-3 1-6 1-2 6-5 7 2 1v7 1 4h1l1 13 4 5h-1-1l-1-1-1-1-1-1-1-1v-1l-1-1-1-1-1-1v-1-1l-1-1v-1l-1-1v-1-1-1l-1-1v-1-1-1-2-5-1-1-1-1l1-1v-1-1-1l1-1v-1l1-1v-1-1l1-1 1-1v-1l1-1 1-1 1-1 1-1 1-1 1-1h1l1-1h1l1-1h1l1-1h2l1-1zm67-1h1v1h-1zm65 1v-1 2zm-62 7v-1l1 2h-1zm-71 1l-1 2-2-2zm72 1v-1h1v1l1 2 1 3 1 2h2v1h-2-2l-1-1v-2-1l-1-1v-1-1zm96 0h1v1h-1zm-94 30v-1h1 2 6 2 2l1 2h-7l-1 4-2-1-1 8-3 2-2-2-5 11v-1-1-1l1-1v-1l1-1v-1l1-1v-1-1l1-1v-1-1l1-1v-1-1l1-1v-1-1-1-1-1zm15 1l1-1h11 3 4 1v1 1 1 1l-1 1v1 1 1l-1 1v1 1 1l-1 1v1 1l-1 1v1 1 1l-1 1v1 1l-1 1v1l-1 1v1 1l-1 1v1l-1 1v1l-1 1v1l-1 1v1l-1 1v1l-1 1v1l-1 1v1l-1 1-1 1v1l-1 1v1l-1 1-1 1-1 1v1l-1 1-1 1-1 1-1 1-1 1v1l-1 1-1 1-1 1-1 1-1 1-1 1-1 1-1 1h-1-1l-1-1-1-1-1-1v-1-1-2-1h-1l1 1v2h-1l-1-1-1-1v-1l-1-1v-1l-1-1-1-1-1-1v-1l-1-1-1-1v-1l-1-1-1-1v-1l-1-1-1-1v-1l-1-1-1-1v-3l1-1 1-1h1v-1-1l1-1 1-1 1-1 1-1v-1l1-1h1l-3 6 1 11 6 2 2 6 2-2 13-8 3 4v1-1l7-9v-26l-4-2 1-5 1-1h1 5l-5-1h-4-1zm3 1h1v1h-1zm-162 33l2-2 1 4 1-31v31 1 2l-1 1h-1-1l-1 1h-1-1-1-7l10-2-4-1zm96-21l6-6v1 1l-1 1-1 1-1 1-1 1h-1zm-34 1v-1l6 2 4 2h2 12l6-4 3 1v1h-1l-1 1h-1l-1 1h-1l-1 1h-1-1-1l-2 1h-1-1-1-2-2-2-1l-1-1h-1-1-1l-1-1h-1-1l-1-1h-1l-1-1h-1zm143 7h1v1h-1zm-70 2l1-1h1l-2 3v-1zm69-1h1v1h-1zm-100 29l1-1h1 1 1v1l1 1 1 1v1l1 1v1l1 1v1l1 1v1l1 1 1 1v1l1 1 1 1v1l1 1v1l1 1 1 1v1l1 1v1l1 1v1l1 1v1 1l-1 1h-1l-1 1h-1-1l-1 1h-1-1l-1 1h-1-1l-1 1h-1-1l-1 1h-1-1l-1 1h-1-1-1v-32h-1l-2-1h1 1l1-1h1zm-18 3h1v1h-1zm3 1v-1h1 2v1h-2zm-115 1l1-1h7 2 65 4 14 2 1 13 2v1h-3-1-2-3-3-1-1-2-2-14l14 3-4 4-5-1v6l-2-2-1 2-2-1v-3l-4 2 2-3-2-5h-3l5-2-21 2-18-2 2 3-2 2-8-2-1 6-4-1-4 1v-9h-5l3 2-4 9-3 1-2-6-7 9 5 1-1 7 3 6-2 1h6l-3-1 1-14h3v13l3 2h3v-14l4 4h-1 1l3 1 4-3 1 4 3-2 2 2 9 5 1-3h4l18 4-5 2h10v-15l5 2 1 1v-1l3 7 9 1 4 1v3l-4 1h8l4-7 6 4h-4l-3 3h16v1h-1-1-2-1-4-72-2-1-6-9-14v-1h-1v1h-1-1l-1-1v-1-1l-1-1v1h-1-1v-1l-1-1v-1-19-4-1zm249 1h1v1h-1zm-1 2h1v1h-1zm-246 25h1v1h-1zm121 2v-1h1l1 1h-1zm54 6h1v1h-1zm31 14h1v1h-1zm1 1h1v1h-1zm3 0h1v1h-1zm-4 1h1v1h-1zm3 0h1v1h-1zm-4 1h1v1h-1zm-71 3h1v1h-1zm-89 2h1v1h-1zm17 0h1v1h-1zm2 0h1v1h-1zm17 2h1v1h-1zm25 0h1v1h-1zm2 0h1v1h-1zm-3 1h1v1h-1zm2 0h1v1h-1zm75 10h1v1h-1zm-241 9h1v1h-1zm24 2h1v1h-1z"/>
		<path id="Path 34" fill-rule="evenodd" class="s16" d="m72 69l11-4h2 1 4 1 1 2 17 1 2 13 11 8 2 14 9 11 2 3l1 1h1 2 1 1l1 1 5 2 3 11v4h-3l2 7-5 7-5 1h-1l-1-1h-1-1-1-1-1-1-1-1l-4-1h-2-4v-1l-1-4 5-2 3-8-9-1h11l-1-6-5-4 1-5h-33v6l-1 7-3 1 30 2-27 1h-12l-3 11-5 2h8v1h-13v-1h-2l-7 1-1 1h-1-4l-3 3-1 1v2 1 1 8 7 1 18 2 3 1 62h-1v-31l-1 31-1-4-2 2-4 4 4 1-10 2h-1-1-3-1-2l-5-1v-139l3-3zm-2-2h1v1h-1zm-66 1h1v1h-1zm6 6h1v1h-1zm55 0h1v1h-1zm49 22h1v1h-1zm17 1v-1h7v1zm10 0v-1h3v1h-2zm4-1h1v1h-1zm3 0h1v1h-1zm2 1v-1h2v1zm3 0v-1h8v1zm9-1h1v1h-1zm68 3l4-3 6 3 8 11 2-4 2 5 1-2 4 6 6 16-5 2 3 3-3 11-9-1-3 2h7v1h-3-2-4-2-2v-1h-2l-1-2-1-3-1-2v-1h-1l-1-2-1-1v-1l-1-1v-1l-1-1v-1l1-1h-1v-1l-1-1h-1v-1-1l-1-1h-1v-1-1l-1-2-1-1-1-1-1-13 1-1 1-1 3-4zm-129-1h1v1h-1zm97 1l-2-1h2zm-101 3h1v1h-1zm126 19h1v1h-1zm39 0h1v1h-1zm1 2h1v1h-1zm-102 9h1v1h-1zm19 0h1v1h-1zm87 3h1v1h-1zm-105 4l-1-2 7 1-2 3 2 1 12-1 14 23v13 2l-6 6-1 1-3-1-6 4h-12-2l-4-2-6-2-4-5-1-13h-1v-4-1-7l-2-1 5-7 2-6 6-1 2 2 1-2zm-3 1l3-1v1zm-155 0h1v1h-1zm190 2h1v1h-1zm75 1h1v1h-1zm-125 4h1v1h-1zm153 0h1v1h-1zm-293 6h1v1h-1zm138 0h1v1h-1zm94 32l3-2 1-8 2 1 1-4h7l-1-2h1 2v1l-1 1h1 1l1 1 1 1-1 5 4 2v26l-7 9-3-4-13 8-2 2-2-6-6-2-1-11 3-6 2-3 5-11zm21-12v-1l5 1zm-2 0h1v1h-1zm-21 4h1v1h-1zm-230 5h1v1h-1zm293 4l1-3v3zm-144-1h1v1h-1zm35 0h1v1h-1zm110 2v2l-1-2zm-70 6h1v1h-1zm-35 30h1v1h-1zm-5 2l1-1h1 1l2 1h1v32 1h-1-1-1l-1-1h-1v1h-1-2-16l3-3h4l-6-4-4 7h-8l4-1v-3l-4-1-9-1-3-7h-1l-5-2v15h-10l5-2-18-4h-4l-1 3-9-5-2-2-3 2-1-4-4 3-3-1-4-4v14h-3l-3-2v-13h-3l-1 14 3 1h-6l2-1-3-6 1-7-5-1 7-9 2 6 3-1 4-9-3-2h5v9l4-1 4 1 1-6 8 2 2-2-2-3 18 2 21-2-5 2h3l2 5-2 3 4-2v3l2 1 1-2 2 2v-6l5 1 4-4-14-3h14 2 2 1 1 3 3 2 1 3v-1-1h1l1 1h1 1 1 2v-1-1h1 1zm-184 1h1v1h-1zm228 1h1v1h-1zm42 9h1v1h-1zm-1 1h1v1h-1zm1 1h1v1h-1zm-3 2h1v1h-1zm-1 2h1v1h-1zm-266 1h1v1h-1zm265 0h1v1h-1zm-1 1h1v1h-1zm-234 1h1v1h-1zm112 0h1v1h-1zm121 0h1v1h-1zm32 2h1v1h-1zm3 2h1v1h-1zm-268 1h1v1h-1zm261 0h1v1h-1zm6 1h1v1h-1zm-1 1h1v1h-1zm-296 2h1v1h-1zm295 0h1v1h-1zm-1 1h1v1h-1zm-2 3h1v1h-1zm-292 1h1v1h-1zm286 0h1v1h-1zm3 3h1v1h-1zm-1 1h1v1h-1zm-1 1h1v1h-1zm-1 1h1v1h-1zm-1 1h1v1h-1zm-285 1h1v1h-1zm284 0h1v1h-1zm-1 1h1v1h-1zm1 2h1v1h-1zm-284 4h1v1h-1zm222 1h1v1h-1zm-222 1h1v1h-1zm217 1h1v1h-1zm-112 8h1v1h-1zm30 0h1v1h-1zm22 0h1v1h-1zm8 0h1v1h-1zm-104 18h1v1h-1zm158 5h1v1h-1zm-1 4h1v1h-1zm-188 1h1v1h-1zm4 0h1v1h-1zm2 0h1v1h-1zm-1 2h1v1h-1zm169 1h1v1h-1zm-183 1h1v1h-1zm172 1h1v1h-1z"/>
		<path id="Path 35" fill-rule="evenodd" class="s17" d="m209 9h1v1h-1zm4 0h1v1h-1zm6 2h1v1h-1zm21 8h1v1h-1zm4 2h1v1h-1zm11 6h1v1h-1zm2 1h1v1h-1zm-35 3l4 2-1 2zm40 0h1v1h-1zm3 2h1v1h-1zm-237 2h1v1h-1zm203 0l4 2-4 1zm-186 3h1v1h-1zm-2 1h1v1h-1zm151 0h1v1h-1zm40 0h1v1h-1zm3 0h1v1h-1zm2 0h1v1h-1zm-197 1h1v1h-1zm156 0h1v1h-1zm44 4l-2-3 3-1zm-201-3h1v1h-1zm161 0h1v1h-1zm4 1h1v1h-1zm-167 1h1v1h-1zm174 1h1v1h-1zm28 0h1v1h-1zm-203 1h1v1h-1zm182 0h1v1h-1zm37 5l-8-1v-3h5l1 3 3-4zm-39-4h1v1h-1zm7 1h1v1h-1zm-2 1h1v1h-1zm4 0h1v1h-1zm-2 1h1v1h-1zm32 4h1v1h-1zm-22 1h1v1h-1zm2 1h1v1h-1zm5 3h1v1h-1zm3 2h1v1h-1zm50 1h1v1h-1zm-46 2h1v1h-1zm-168 2v-1h4v1h-2zm5 0v-1h4v1zm5-1h1v1h-1zm3 1v-1h17v1zm18 0v-1h2v1zm15 0v-1h11v1zm19 0v-1h2v1zm16 0v-1h9v1zm25 0h1v1h-1zm111 0h1v1h-1zm-156 7v-6h33l-1 5 5 4 1 6h-11l9 1-3 8-5 2 1 4h-8-1-1-8-1-2-1-1-2-1-1-3-3-7-2-8l5-2 3-11h12l27-1-30-2 3-1zm51-6h1v1h-1zm4 1h1v1h-1zm57 0h1v1h-1zm-53 1h1v1h-1zm-135 3h1v1h-1zm193 0h1v1h-1zm1 1h1v1h-1zm1 1h1v1h-1zm1 1h1v1h-1zm-253 10h1v1h-1zm262 0h1v1h-1zm-36 3h1v1h-1zm2 0h1v1h-1zm37 1h1v1h-1zm-34 2h1v1h-1zm-126 6h2-1zm115 0h1v1h-1zm-123 2l1-1h7 1 1 13 2 7v1zm34 0v-1h1 1v1zm4 0v-1h1 1 2 1 1 2 1 8 1v1zm19 0v-1h7v1zm8 0v-1h4 2l4 1zm27 0h1v1h-1zm28 2h1v1h-1zm23 0h1v1h-1zm34 2h1v1h-1zm-60 2h1v1h-1zm29 0h1v1h-1zm33 2h1v1h-1zm-65 2h1v1h-1zm35 0h1v1h-1zm-33 12h1v1h-1zm69 1h1v1h-1zm-67 1h1v1h-1zm41 6h1v1h-1zm-36 2h1v1h-1zm-66 1h1v1h-1zm14 0h1v1h-1zm89 0h1v1h-1zm-108 2h1v1h-1zm-2 1h1v1h-1zm29 0h1v1h-1zm-31 1h1v1h-1zm141 0h1v1h-1zm-106 2h1v1h-1zm79 2h1v1h-1zm-35 1h1v1h-1zm63 0h1v1h-1zm17 2h1v1h-1zm-167 1h1v1h-1zm50 2h1v1h-1zm57 3h-7l3-2 9 1zm-56-1h1v1h-1zm73 1h1v1h-1zm29 0h1v1h-1zm14 0h1v1h-1zm-115 1h1v1h-1zm38 1v-1h2v1zm6 0v-1h2v1zm-43 2h1v1h-1zm-58 7v-1h1v5h-1v-1-1-1zm173 2h1v1h-1zm-62 10v-1h2 1 2 6v1zm-17 0h1v1h-1zm19 2l-1-1h4v1h-1-1zm-60 6h1v1h-1zm136 4h1v1h-1zm-33 3h1v1h-1zm32 3h1v1h-1zm-153 2l2-1v1h-1zm152 2h1v1h-1zm-101 1h1v1h-1zm-1 2h1v1h-1zm101 2h1v1h-1zm-103 1h1v1h-1zm-4 5h1v1h-1zm-1 1h1v1h-1zm106 0h1v1h-1zm-107 1h1v1h-1zm-122 2h1v1h-1zm226 7h1v1h-1zm-124 6h1v1h-1zm-2 1h1v1h-1zm-4 1h1v1h-1zm8 0h1v1h-1zm-12 1h1v1h-1zm-6 2v-1h1 1v1zm-7 1v-1h1 1v1zm5-1h1v1h-1zm52 4h1v1h-1zm-27 2h1v1h-1zm107 1h1v1h-1zm2 0h1v1h-1zm-1 2h1v1h-1zm-4 7h1v1h-1zm-3 5h1v1h-1zm-2 3h1v1h-1zm-2 3h1v1h-1zm-269 2h1v1h-1zm34 1h1v1h-1zm187 1h1v1h-1zm45 0h1v1h-1zm-227 1h1v1h-1zm114 1v-1h2v1h-1zm-153 0h1v1h-1zm219 0h1v1h-1zm43 0h1v1h-1zm-2 6h1v1h-1zm-1 1h1v1h-1zm-1 1h1v1h-1zm-1 1h1v1h-1zm-1 1h1v1h-1zm-13 13h1v1h-1zm-84 3h1v1h-1zm77 0h1v1h-1zm2 1h1v1h-1zm-4 3h1v1h-1zm-6 2h1v1h-1zm2 1h1v1h-1zm-5 1h1v1h-1zm-2 1h1v1h-1zm4 0h1v1h-1zm-5 1h1v1h-1zm-2 1h1v1h-1zm-2 1h1v1h-1zm-2 1h1v1h-1zm-1 1h1v1h-1zm-2 1h1v1h-1zm-2 1h1v1h-1zm4 0h1v1h-1zm-243 1h1v1h-1zm237 0h1v1h-1zm4 0h1v1h-1zm-239 1h1v1h-1zm237 0h1v1h-1zm-2 1h1v1h-1zm-2 1h1v1h-1zm-7 1h1v1h-1zm0 2h1v1h-1zm-5 2h1v1h-1zm-88 3h1v1h-1zm76 1h1v1h-1zm-201 1h1v1h-1zm188 0h1v1h-1zm9 0h1v1h-1zm-193 2h1v1h-1zm184 0h1v1h-1zm-182 1h1v1h-1zm13 0h1v1h-1zm-9 1h1v1h-1z"/>
		<path id="Path 36" class="s8" d="m218 116h1v1h-1zm1 1h1v1h-1zm1 1h1v1h-1zm33 99h1v1h-1z"/>
		<path id="Path 37" class="s9" d="m214 76h1v1h-1zm-4 7h1v1h-1zm-2 3h1v1h-1zm-3 5h1v1h-1zm-1 2h1v1h-1zm17 26h1v1h-1zm9 14h1v1h-1zm-85 44h1v1h-1zm50 1h1v1h-1zm-47 3h1v1h-1zm1 1h1v1h-1zm1 1h1v1h-1zm1 1h1v1h-1zm30 5h1v1h-1zm75 23h1v1h-1zm-6 9h1v1h-1zm-1 1h1v1h-1zm-4 5h1v1h-1zm-1 1h1v1h-1zm-13 1h1v1h-1zm12 0h1v1h-1zm-2 2h1v1h-1zm-8 1h1v1h-1zm7 0h1v1h-1zm-28 19h1v1h-1z"/>
		<path id="Path 38" class="s10" d="m193 181h1v1h-1zm-1 1h1v1h-1zm-1 1h1v1h-1zm-1 1h1v1h-1zm30 29h1v1h-1zm2 3h1v1h-1zm2 3h1v1h-1zm2 3h1v1h-1zm12 12h1v1h-1z"/>
		<path id="Path 39" class="s11" d="m65 210h1v1h-1z"/>
		<path id="Path 40" class="s12" d="m211 81h1v1h-1zm-112 19h1v1h-1zm171 75h1v1h-1zm-116 11h1v1h-1zm2 1h1v1h-1zm107 11h1v1h-1zm-45 12h1v1h-1zm36 5h1v1h-1zm-6 8h1v1h-1zm-6 7h1v1h-1zm-3 3h1v1h-1zm-25 17h1v1h-1zm-5 2h1v1h-1zm-144 2h1v1h-1zm4 4h1v1h-1z"/>
		<path id="Path 41" class="s13" d="m209 84h1v1h-1zm-109 15h1v1h-1zm100 1h1v1h-1zm-57 72h1v1h-1zm55 0h1v1h-1zm71 7h1v1h-1zm-1 4h1v1h-1zm-2 7h1v1h-1zm-1 3h1v1h-1zm-8 17h1v1h-1zm-162 1h1v1h-1zm157 7h1v1h-1zm-25 5h1v1h-1zm8 11h1v1h-1z"/>
		<path id="Path 42" class="s14" d="m230 228h1v1h-1z"/>
		<path id="Path 43" class="s15" d="m77 68h1v1h-1zm-5 1h1v1h-1zm158 30h1v1h-1zm-133 2h1v1h-1zm-2 12h1v1h-1zm161 2h1v1h-1zm-33 5h1v1h-1zm1 1h1v1h-1zm2 3h1v1h-1zm1 2h1v1h-1zm1 1h1v1h-1zm1 2h1v1h-1zm-67 10h1v1h-1zm2 1h1v1h-1zm-10 4h1v1h-1zm-3 3h1v1h-1zm-3 7h1v1h-1zm0 8h1v1h-1zm0 4h1v1h-1zm-53 1h1v1h-1zm60 12h1v1h-1zm28 5h1v1h-1zm4 1h1v1h-1zm49 0h1v1h-1zm-76 1h1v1h-1zm96 0h1v1h-1zm-88 1h1v1h-1zm6 0h1v1h-1zm-98 25h1v1h-1zm4 0h1v1h-1zm105 13h1v1h-1zm-77 4h6v3h-6zm22 0l5 1-6 3-3-2zm-24 1h1v1h-1zm31 0h1v1h-1zm-40 2h1v1h-1zm54 3h1v1h-1zm-4 5h1v1h-1zm-1 4h1v1h-1zm5 3h1v1h-1zm8 3h1v1h-1zm3 1h1v1h-1zm-3 1h1v1h-1zm5 3h1v1h-1zm-28 1h1v1h-1z"/>
		<path id="Path 44" fill-rule="evenodd" class="s16" d="m148 67h1v1h-1zm-77 2h1v1h-1zm72 0h1v1h-1zm3 0h1v1h-1zm-77 1h1v1h-1zm131 0h1v1h-1zm-58 1h1v1h-1zm2 0h1v1h-1zm32 5h1v1h-1zm35 1h1v1h-1zm-70 6h1v1h-1zm32 0h1v1h-1zm-38 1h1v1h-1zm4 1h1v1h-1zm-7 1h1v1h-1zm16 0h1v1h-1zm10 0h1v1h-1zm-92 1h1v1h-1zm81 0h1v1h-1zm-12 1h1v1h-1zm17 1h1v1h-1zm-20 1h1v1h-1zm71 0h1v1h-1zm-68 1h1v1h-1zm-69 1h1v1h-1zm80 0h1v1h-1zm19 0h1v1h-1zm69 0h1v1h-1zm-95 1h1v1h-1zm5 0h1v1h-1zm20 0h1v1h-1zm-17 1h1v1h-1zm6 0h1v1h-1zm5 0h1v1h-1zm7 0h1v1h-1zm2 0h1v1h-1zm34 0h1v1h-1zm2 0h1v1h-1zm-3 2h1v1h-1zm-1 2h1v1h-1zm-133 1h1v1h-1zm180 0h1v1h-1zm4 6h1v1h-1zm1 1h1v1h-1zm-185 6h1v1h-1zm0 14h1v1h-1zm197 2h1v1h-1zm-95 4h1v1h-1zm9 1h1v1h-1zm-16 1h1v1h-1zm104 0h1v1h-1zm-102 1h1v1h-1zm2 1h1v1h-1zm21 1h1v1h-1zm-33 1h1v1h-1zm-1 1h1v1h-1zm-1 1h1v1h-1zm-1 1h1v1h-1zm-2 3h1v1h-1zm-1 1h1v1h-1zm47 0h1v1h-1zm-48 1h1v1h-1zm113 0h1v1h-1zm-115 6l2-3-1 4zm0 4v-3h1zm-77-2v2l-1-2zm78 9v6l-2-3 1-10zm0-6h1v1h-1zm0 2h1v1h-1zm0 3h1v1h-1zm2 0h1v1h-1zm1 5h1v1h-1zm89 4h1v1h-1zm-89 1h1v1h-1zm48 0h1v1h-1zm-1 2h1v1h-1zm-49 1h1v1h-1zm1 1h1v1h-1zm2 3h1v1h-1zm108 0h1v1h-1zm-20 1h1v1h-1zm29 3h1v1h-1zm1 3h1v1h-1zm-5 9h1v1h-1zm-41 10h1v1h-1zm-129 1h1v1h-1zm128 1h1v1h-1zm-127 3h1v1h-1zm128 1h1v1h-1zm-132 1h1v1h-1zm162 4h1v1h-1zm-26 1h1v1h-1zm25 0h1v1h-1zm-15 3h1v1h-1zm13 0h1v1h-1zm-20 4h1v1h-1zm5 2h1v1h-1zm10 0h1v1h-1zm-1 1h1v1h-1zm-173 1h1v1h-1zm9 0h1v1h-1zm2 0h1v1h-1zm9 0h1v1h-1zm2 0h1v1h-1zm2 0h1v1h-1zm148 0h1v1h-1zm-1 1h1v1h-1zm-89 2h1v1h-1zm1 1h1v1h-1zm-10 1h1v1h-1zm5 1h1v1h-1zm-57 1h1v1h-1zm58 0h1v1h-1zm-4 11h1v1h-1zm3 0h1v1h-1zm-58 1h1v1h-1zm1 1h1v1h-1zm3 1h1v1h-1zm10 1h1v1h-1zm2 4h1v1h-1zm67 0h1v1h-1zm-103 2h1v1h-1zm3 1h1v1h-1zm21 0h1v1h-1zm24 0h1v1h-1zm7 0h1v1h-1zm23 0h1v1h-1zm21 0h1v1h-1z"/>
		<path id="Path 45" class="s17" d="m95 66h1v1h-1zm45 0h1v1h-1zm39 0h1v1h-1zm-56 11h1v1h-1zm90 0h1v1h-1zm-1 2h1v1h-1zm-5 8h1v1h-1zm-1 2h1v1h-1zm-87 6h1v1h-1zm83 1h1v1h-1zm-13 2h1v1h-1zm12 0h1v1h-1zm-8 1h1v1h-1zm4 1h1v1h-1zm20 14h1v1h-1zm14 16h1v1h-1zm2 4h1v1h-1zm-2 1h1v1h-1zm1 2h1v1h-1zm3 3h1v1h-1zm-1 4h1v1h-1zm1 4h1v1h-1zm-169 5h1v1h-1zm76 15h1v1h-1zm57 0h1v1h-1zm52 4h1v1h-1zm-107 2h1v1h-1zm53 0h1v1h-1zm-1 2h1v1h-1zm-50 2h1v1h-1zm1 1h1v1h-1zm38 8h1v1h-1zm-27 1h1v1h-1zm25 0h1v1h-1zm-22 1h1v1h-1zm4 1h1v1h-1zm99 5h1v1h-1zm-2 5h1v1h-1zm-3 2h1v1h-1zm2 0h1v1h-1zm-1 2h1v1h-1zm-1 2h1v1h-1zm-1 2h1v1h-1zm-39 3h1v1h-1zm-127 1h1v1h-1zm163 1h1v1h-1zm-34 1h1v1h-1zm2 3h1v1h-1zm28 2h1v1h-1zm-26 1h1v1h-1zm22 4h1v1h-1zm-54 1h1v1h-1zm53 0h1v1h-1zm-17 1h1v1h-1zm2 0h1v1h-1zm-68 2h1v1h-1zm76 2h1v1h-1zm-5 3h1v1h-1zm-28 20h1v1h-1zm-139 1h1v1h-1zm136 0h1v1h-1zm-135 1h1v1h-1zm132 0h1v1h-1zm-3 1h1v1h-1zm-53-104h1v1h-1z"/>
	</g>
</svg>